# xmcd CD database file
#
# Track frame offsets:
#	150
#	27486
#	58777
#	90476
#	121076
#	150222
#	188628
#	214662
#
# Disc length: 3408 seconds
#
# Revision: 0
# Processed by: cddbd v1.5.1PL0 Copyright (c) Steve Scherf et al.
# Submitted via: CDex 1.51
#
DISCID=5b0d4e08
DTITLE=Scott Hamilton and Harry Allen - Heavy Juice
DYEAR=2004
DGENRE=Jazz
TTITLE0=Heavy Juice
TTITLE1=Did You Call Her Today?
TTITLE2=Groovin High
TTITLE3=If I Should Lose You
TTITLE4=Blues Up And Down
TTITLE5=If Dreams Come True
TTITLE6=Warm Valley
TTITLE7=Ow!
EXTD=YEAR: 2004
EXTT0=
EXTT1=
EXTT2=
EXTT3=
EXTT4=
EXTT5=
EXTT6=
EXTT7=
PLAYORDER=
